<svg xmlns="http://www.w3.org/2000/svg" version="1.0" width="475.000000pt" height="140.000000pt" viewBox="0 0 475.000000 140.000000" preserveAspectRatio="xMidYMid meet">

<g transform="translate(0.000000,140.000000) scale(0.100000,-0.100000)" fill="#000000" stroke="none">
<path d="M528 1240 c-94 -50 -129 -166 -80 -265 8 -16 110 -127 227 -245 117 -118 221 -230 230 -249 12 -24 16 -48 12 -79 l-5 -44 105 103 c151 150 178 204 149 301 -14 49 -32 70 -228 265 -117 116 -226 217 -241 222 -45 17 -128 12 -169 -9z"/>
<path d="M4458 1038 c-8 -7 -30 -39 -48 -71 -29 -52 -31 -60 -17 -74 19 -20 40 -8 95 51 46 49 50 66 26 90 -19 19 -35 20 -56 4z"/>
<path d="M3537 1012 c-14 -15 -17 -41 -17 -145 l0 -126 -32 -17 c-51 -26 -61 -50 -32 -79 11 -10 25 -14 40 -11 l24 6 0 -105 c0 -101 1 -105 25 -121 23 -15 27 -15 50 0 25 16 25 19 25 146 l0 130 40 20 c47 24 56 40 40 70 -10 18 -18 21 -46 17 l-34 -6 0 104 c0 81 -3 107 -16 119 -21 21 -47 20 -67 -2z"/>
<path d="M2506 985 c-75 -27 -152 -108 -175 -186 -16 -53 -13 -158 5 -212 22 -65 91 -139 156 -167 43 -19 65 -22 129 -18 117 7 186 54 240 165 34 69 33 197 -1 268 -32 66 -99 129 -157 149 -57 19 -144 20 -197 1z m171 -102 c44 -20 90 -90 99 -149 13 -90 -34 -192 -102 -220 -79 -33 -164 -9 -211 58 -26 38 -28 49 -28 129 0 82 2 89 31 126 56 70 137 92 211 56z"/>
<path d="M1403 983 c-16 -6 -17 -55 -1 -71 7 -7 43 -12 90 -12 l78 0 0 -234 c0 -231 0 -235 22 -250 30 -21 44 -20 68 4 19 19 20 33 20 250 l0 230 78 0 c82 0 102 9 102 45 0 43 -13 45 -234 44 -116 0 -217 -3 -223 -6z"/>
<path d="M2152 844 c-18 -13 -20 -27 -24 -160 -3 -146 -3 -146 -31 -170 -19 -16 -40 -24 -65 -24 -77 1 -92 36 -92 209 0 137 -5 151 -52 151 -44 0 -50 -25 -46 -184 4 -167 20 -211 88 -246 57 -29 165 -28 210 3 74 50 89 96 90 273 0 122 -6 145 -41 157 -9 3 -26 -1 -37 -9z"/>
<path d="M3075 843 c-83 -43 -119 -108 -119 -213 0 -140 80 -230 204 -230 54 0 81 10 118 43 l22 20 0 -36 c0 -57 -34 -89 -101 -95 -37 -3 -67 1 -93 12 -53 22 -73 20 -92 -9 -36 -55 35 -95 171 -95 103 0 162 32 196 105 16 35 19 68 19 266 0 242 -1 249 -52 249 -20 0 -32 -7 -39 -24 l-11 -24 -42 24 c-49 28 -135 32 -181 7z m192 -117 c29 -32 33 -42 33 -92 0 -100 -54 -153 -143 -141 -97 13 -141 148 -75 232 28 36 54 46 108 41 35 -3 51 -11 77 -40z"/>
<path d="M3850 844 c-84 -36 -133 -115 -133 -214 0 -138 92 -230 230 -230 131 1 223 92 223 221 0 104 -43 179 -123 218 -52 25 -145 28 -197 5z m151 -89 c68 -36 91 -139 46 -206 -28 -41 -60 -59 -111 -59 -31 0 -45 7 -77 39 -37 36 -39 42 -39 99 0 51 4 65 27 92 43 51 98 63 154 35z"/>
<path d="M4325 846 c-71 -32 -101 -104 -71 -168 19 -41 52 -61 140 -88 91 -29 116 -58 80 -94 -31 -31 -128 -14 -163 28 -20 24 -68 20 -82 -5 -9 -17 -7 -26 8 -48 63 -86 239 -97 311 -19 46 50 38 139 -17 177 -14 10 -57 28 -96 41 -38 12 -76 27 -82 33 -21 15 -15 55 8 68 30 16 97 5 124 -21 44 -41 103 -7 75 44 -30 56 -160 85 -235 52z"/>
<path d="M294 826 c-68 -31 -95 -116 -59 -186 45 -87 193 -76 231 17 21 49 11 96 -29 139 -37 41 -93 53 -143 30z"/>
<path d="M558 563 c-99 -102 -116 -125 -127 -167 -23 -92 17 -178 101 -220 62 -31 108 -33 166 -6 48 22 157 121 178 162 18 35 18 90 -1 136 -14 32 -179 212 -196 212 -3 0 -57 -53 -121 -117z"/>
</g>
</svg>